<mxfile host="65bd71144e">
    <diagram id="Owjz4RAzF8q_26df3Fcg" name="Page-1">
        <mxGraphModel dx="1241" dy="790" grid="1" gridSize="10" guides="1" tooltips="1" connect="1" arrows="1" fold="1" page="1" pageScale="1" pageWidth="827" pageHeight="1169" math="0" shadow="0">
            <root>
                <mxCell id="0"/>
                <mxCell id="1" parent="0"/>
                <mxCell id="2" value="" style="rounded=0;whiteSpace=wrap;html=1;" vertex="1" parent="1">
                    <mxGeometry x="40" y="40" width="360" height="640" as="geometry"/>
                </mxCell>
                <mxCell id="12" value="" style="rounded=0;whiteSpace=wrap;html=1;" vertex="1" parent="1">
                    <mxGeometry x="100" y="150" width="250" height="300" as="geometry"/>
                </mxCell>
                <mxCell id="24" value="" style="rounded=0;whiteSpace=wrap;html=1;" vertex="1" parent="1">
                    <mxGeometry x="110" y="283" width="60" height="57" as="geometry"/>
                </mxCell>
                <mxCell id="3" value="top level: App" style="text;html=1;strokeColor=none;fillColor=none;align=center;verticalAlign=middle;whiteSpace=wrap;rounded=0;" vertex="1" parent="1">
                    <mxGeometry x="50" y="60" width="40" height="20" as="geometry"/>
                </mxCell>
                <mxCell id="21" style="edgeStyle=none;html=1;exitX=0.5;exitY=1;exitDx=0;exitDy=0;entryX=1;entryY=0.25;entryDx=0;entryDy=0;" edge="1" parent="1" source="4" target="6">
                    <mxGeometry relative="1" as="geometry"/>
                </mxCell>
                <mxCell id="4" value="" style="rounded=0;whiteSpace=wrap;html=1;" vertex="1" parent="1">
                    <mxGeometry x="100" y="60" width="250" height="30" as="geometry"/>
                </mxCell>
                <mxCell id="5" value="input" style="text;html=1;strokeColor=none;fillColor=none;align=center;verticalAlign=middle;whiteSpace=wrap;rounded=0;" vertex="1" parent="1">
                    <mxGeometry x="110" y="65" width="40" height="20" as="geometry"/>
                </mxCell>
                <mxCell id="6" value="" style="rounded=1;whiteSpace=wrap;html=1;" vertex="1" parent="1">
                    <mxGeometry x="100" y="100" width="60" height="20" as="geometry"/>
                </mxCell>
                <mxCell id="22" style="edgeStyle=none;html=1;exitX=0.5;exitY=1;exitDx=0;exitDy=0;entryX=0.336;entryY=0.007;entryDx=0;entryDy=0;entryPerimeter=0;" edge="1" parent="1" source="7" target="12">
                    <mxGeometry relative="1" as="geometry"/>
                </mxCell>
                <mxCell id="7" value="addToList" style="text;html=1;strokeColor=none;fillColor=none;align=center;verticalAlign=middle;whiteSpace=wrap;rounded=0;" vertex="1" parent="1">
                    <mxGeometry x="110" y="100" width="40" height="20" as="geometry"/>
                </mxCell>
                <mxCell id="30" value="" style="rounded=0;whiteSpace=wrap;html=1;" vertex="1" parent="1">
                    <mxGeometry x="110" y="158" width="220" height="42" as="geometry"/>
                </mxCell>
                <mxCell id="8" value="List Item" style="text;strokeColor=none;fillColor=none;align=left;verticalAlign=top;spacingLeft=4;spacingRight=4;overflow=hidden;rotatable=0;points=[[0,0.5],[1,0.5]];portConstraint=eastwest;" vertex="1" parent="1">
                    <mxGeometry x="110" y="160" width="60" height="26" as="geometry"/>
                </mxCell>
                <mxCell id="9" value="List Item" style="text;strokeColor=none;fillColor=none;align=left;verticalAlign=top;spacingLeft=4;spacingRight=4;overflow=hidden;rotatable=0;points=[[0,0.5],[1,0.5]];portConstraint=eastwest;" vertex="1" parent="1">
                    <mxGeometry x="110" y="200" width="60" height="26" as="geometry"/>
                </mxCell>
                <mxCell id="10" value="List Item" style="text;strokeColor=none;fillColor=none;align=left;verticalAlign=top;spacingLeft=4;spacingRight=4;overflow=hidden;rotatable=0;points=[[0,0.5],[1,0.5]];portConstraint=eastwest;" vertex="1" parent="1">
                    <mxGeometry x="110" y="250" width="60" height="26" as="geometry"/>
                </mxCell>
                <mxCell id="11" value="List Item" style="text;strokeColor=none;fillColor=none;align=left;verticalAlign=top;spacingLeft=4;spacingRight=4;overflow=hidden;rotatable=0;points=[[0,0.5],[1,0.5]];portConstraint=eastwest;" vertex="1" parent="1">
                    <mxGeometry x="110" y="300" width="60" height="26" as="geometry"/>
                </mxCell>
                <mxCell id="23" style="edgeStyle=none;html=1;exitX=0;exitY=0.5;exitDx=0;exitDy=0;" edge="1" parent="1" source="15" target="8">
                    <mxGeometry relative="1" as="geometry"/>
                </mxCell>
                <mxCell id="15" value="" style="shape=sumEllipse;perimeter=ellipsePerimeter;whiteSpace=wrap;html=1;backgroundOutline=1;" vertex="1" parent="1">
                    <mxGeometry x="240" y="158" width="30" height="30" as="geometry"/>
                </mxCell>
                <mxCell id="16" value="" style="shape=sumEllipse;perimeter=ellipsePerimeter;whiteSpace=wrap;html=1;backgroundOutline=1;" vertex="1" parent="1">
                    <mxGeometry x="240" y="198" width="30" height="30" as="geometry"/>
                </mxCell>
                <mxCell id="17" value="" style="shape=sumEllipse;perimeter=ellipsePerimeter;whiteSpace=wrap;html=1;backgroundOutline=1;" vertex="1" parent="1">
                    <mxGeometry x="240" y="248" width="30" height="30" as="geometry"/>
                </mxCell>
                <mxCell id="25" value="" style="rounded=0;whiteSpace=wrap;html=1;" vertex="1" parent="1">
                    <mxGeometry x="225" y="283" width="60" height="57" as="geometry"/>
                </mxCell>
                <mxCell id="18" value="" style="shape=sumEllipse;perimeter=ellipsePerimeter;whiteSpace=wrap;html=1;backgroundOutline=1;" vertex="1" parent="1">
                    <mxGeometry x="240" y="296" width="30" height="30" as="geometry"/>
                </mxCell>
                <mxCell id="19" value="" style="ellipse;shape=cloud;whiteSpace=wrap;html=1;" vertex="1" parent="1">
                    <mxGeometry x="-10" y="106" width="120" height="80" as="geometry"/>
                </mxCell>
                <mxCell id="20" value="state" style="text;html=1;strokeColor=none;fillColor=none;align=center;verticalAlign=middle;whiteSpace=wrap;rounded=0;" vertex="1" parent="1">
                    <mxGeometry x="30" y="140" width="40" height="20" as="geometry"/>
                </mxCell>
                <mxCell id="26" value="Text" style="text;html=1;strokeColor=none;fillColor=none;align=center;verticalAlign=middle;whiteSpace=wrap;rounded=0;" vertex="1" parent="1">
                    <mxGeometry x="130" y="320" width="40" height="20" as="geometry"/>
                </mxCell>
                <mxCell id="27" value="Text" style="text;html=1;strokeColor=none;fillColor=none;align=center;verticalAlign=middle;whiteSpace=wrap;rounded=0;" vertex="1" parent="1">
                    <mxGeometry x="130" y="270" width="40" height="20" as="geometry"/>
                </mxCell>
                <mxCell id="28" value="Text" style="text;html=1;strokeColor=none;fillColor=none;align=center;verticalAlign=middle;whiteSpace=wrap;rounded=0;" vertex="1" parent="1">
                    <mxGeometry x="130" y="220" width="40" height="20" as="geometry"/>
                </mxCell>
                <mxCell id="29" value="Text" style="text;html=1;strokeColor=none;fillColor=none;align=center;verticalAlign=middle;whiteSpace=wrap;rounded=0;" vertex="1" parent="1">
                    <mxGeometry x="130" y="180" width="40" height="20" as="geometry"/>
                </mxCell>
                <mxCell id="31" value="Actor" style="shape=umlActor;verticalLabelPosition=bottom;verticalAlign=top;html=1;outlineConnect=0;" vertex="1" parent="1">
                    <mxGeometry x="125" y="525" width="30" height="60" as="geometry"/>
                </mxCell>
                <mxCell id="33" value="" style="ellipse;shape=cloud;whiteSpace=wrap;html=1;" vertex="1" parent="1">
                    <mxGeometry x="150" y="490" width="120" height="80" as="geometry"/>
                </mxCell>
                <mxCell id="32" value="I HAVE THINGS TO DO!" style="text;html=1;strokeColor=none;fillColor=none;align=center;verticalAlign=middle;whiteSpace=wrap;rounded=0;" vertex="1" parent="1">
                    <mxGeometry x="190" y="525" width="40" height="20" as="geometry"/>
                </mxCell>
            </root>
        </mxGraphModel>
    </diagram>
</mxfile>